<svg id="basket" viewBox="0 0 24 24" xmlns="http://www.w3.org/2000/svg">
	<path d="M7.79641 22C7.29832 22 6.87481 21.8236 6.52589 21.4709C6.17697 21.1184 6.00251 20.6905 6.00251 20.1873C6.00251 19.6838 6.17697 19.2559 6.52589 18.9033C6.87481 18.5508 7.29832 18.3745 7.79641 18.3745C8.29468 18.3745 8.71827 18.5508 9.06719 18.9033C9.41611 19.2559 9.59057 19.6838 9.59057 20.1873C9.59057 20.6905 9.41611 21.1184 9.06719 21.4709C8.71827 21.8236 8.29468 22 7.79641 22ZM17.7335 22C17.2352 22 16.8116 21.8236 16.4627 21.4709C16.1138 21.1184 15.9393 20.6905 15.9393 20.1873C15.9393 19.6838 16.1138 19.2559 16.4627 18.9033C16.8116 18.5508 17.2352 18.3745 17.7335 18.3745C18.2316 18.3745 18.6551 18.5508 19.004 18.9033C19.3529 19.2559 19.5274 19.6838 19.5274 20.1873C19.5274 20.6905 19.3529 21.1184 19.004 21.4709C18.6551 21.8236 18.2316 22 17.7335 22ZM5.89204 4.07171H22L17.3134 12.6773H8.76654L7.36274 15.267H19.5274V16.8207H4.75045L7.6821 11.4861L3.95204 3.55378H2V2H4.91807L5.89204 4.07171Z"/>
</svg>