<svg id="catalog" viewBox="0 0 24 24" xmlns="http://www.w3.org/2000/svg">
	<path d="M7.01428 7.6749V5.0249H21.4805V7.6749H7.01428ZM7.01428 13.3249V10.6749H21.4805V13.3249H7.01428ZM7.01428 18.9749V16.3249H21.4805V18.9749H7.01428ZM3.82703 7.6749C3.45653 7.6749 3.14603 7.54865 2.89553 7.29615C2.64486 7.04365 2.51953 6.73082 2.51953 6.35765C2.51953 5.98432 2.64486 5.66882 2.89553 5.41115C3.14603 5.15365 3.45653 5.0249 3.82703 5.0249C4.19736 5.0249 4.5137 5.15324 4.77603 5.4099C5.03836 5.66657 5.16953 5.98457 5.16953 6.3639C5.16953 6.7354 5.03836 7.04674 4.77603 7.2979C4.5137 7.54924 4.19736 7.6749 3.82703 7.6749ZM3.82703 13.3249C3.45653 13.3249 3.14603 13.1937 2.89553 12.9314C2.64486 12.6691 2.51953 12.3527 2.51953 11.9824C2.51953 11.6119 2.64486 11.3013 2.89553 11.0507C3.14603 10.8002 3.45653 10.6749 3.82703 10.6749C4.19736 10.6749 4.5137 10.8002 4.77603 11.0507C5.03836 11.3013 5.16953 11.6119 5.16953 11.9824C5.16953 12.3527 5.03836 12.6691 4.77603 12.9314C4.5137 13.1937 4.19736 13.3249 3.82703 13.3249ZM3.82703 18.9609C3.45653 18.9609 3.14603 18.8347 2.89553 18.5822C2.64486 18.3297 2.51953 18.0167 2.51953 17.6434C2.51953 17.2702 2.64486 16.9548 2.89553 16.6972C3.14603 16.4397 3.45653 16.3109 3.82703 16.3109C4.19736 16.3109 4.5137 16.4392 4.77603 16.6959C5.03836 16.9526 5.16953 17.2706 5.16953 17.6499C5.16953 18.0214 5.03836 18.3327 4.77603 18.5839C4.5137 18.8352 4.19736 18.9609 3.82703 18.9609Z"/>
</svg>