<svg id="favorite" viewBox="0 0 24 24" xmlns="http://www.w3.org/2000/svg">
	<path d="M11.9998 19.25L11.4498 18.75C9.83314 17.2666 8.49564 16 7.4373 14.95C6.37897 13.9 5.54564 12.9791 4.9373 12.1875C4.32897 11.3958 3.90397 10.6833 3.6623 10.05C3.42064 9.41662 3.2998 8.78329 3.2998 8.14995C3.2998 6.96662 3.70397 5.97078 4.5123 5.16245C5.32064 4.35412 6.31647 3.94995 7.4998 3.94995C8.38314 3.94995 9.20814 4.18745 9.9748 4.66245C10.7415 5.13745 11.4165 5.83328 11.9998 6.74995C12.5831 5.83328 13.2581 5.13745 14.0248 4.66245C14.7915 4.18745 15.6165 3.94995 16.4998 3.94995C17.6831 3.94995 18.679 4.35412 19.4873 5.16245C20.2956 5.97078 20.6998 6.96662 20.6998 8.14995C20.6998 8.78329 20.579 9.41662 20.3373 10.05C20.0956 10.6833 19.6706 11.3958 19.0623 12.1875C18.454 12.9791 17.6248 13.9 16.5748 14.95C15.5248 16 14.1831 17.2666 12.5498 18.75L11.9998 19.25Z"/>
</svg>