<svg id="filter" viewBox="0 0 21 21" xmlns="http://www.w3.org/2000/svg">
	<path d="M15.447 16.1968C14.6273 16.1968 13.9344 15.9138 13.3682 15.3478C12.8023 14.7817 12.5193 14.0888 12.5193 13.269C12.5193 12.4492 12.8023 11.7562 13.3682 11.1903C13.9344 10.6241 14.6273 10.3411 15.447 10.3411C16.2669 10.3411 16.9598 10.6241 17.5258 11.1903C18.0919 11.7562 18.375 12.4492 18.375 13.269C18.375 14.0888 18.0919 14.7817 17.5258 15.3478C16.9598 15.9138 16.2669 16.1968 15.447 16.1968ZM3.9375 13.9253V12.6128H10.6011V13.9253H3.9375ZM5.55297 8.65845C4.73309 8.65845 4.04017 8.37539 3.47419 7.80927C2.90806 7.24329 2.625 6.55036 2.625 5.73049C2.625 4.91076 2.90806 4.21783 3.47419 3.6517C4.04017 3.08572 4.73309 2.80273 5.55297 2.80273C6.3727 2.80273 7.06563 3.08572 7.63175 3.6517C8.19773 4.21783 8.48072 4.91076 8.48072 5.73049C8.48072 6.55036 8.19773 7.24329 7.63175 7.80927C7.06563 8.37539 6.3727 8.65845 5.55297 8.65845ZM10.3989 6.38674V5.07424H17.0625V6.38674H10.3989Z"/>
</svg>