<svg id="logo-dark" viewBox="0 0 218 38" fill="none" xmlns="http://www.w3.org/2000/svg">
    <g clip-path="url(#clip0_3201_5878)">
        <path d="M18.9959 6.33333L0 0V5.42857L18.9959 11.7619L39.8008 5.42857V0L18.9959 6.33333Z" fill="#D5634A"/>
        <path fill-rule="evenodd" clip-rule="evenodd" d="M0 9.95239L10.8548 13.5714V19L39.8008 9.95239V31.6667L18.9959 38L0 31.6667V9.95239ZM10.8548 23.5238V27.1429L27.1369 22.1667V18.5476L10.8548 23.5238ZM27.1369 29.8572V26.2381L12.6639 30.7619L18.9959 32.5714L27.1369 29.8572Z" fill="#3A4259"/>
        <path d="M57.8921 33.5224V3.61914H66.9377V33.4763L57.8921 33.5224Z" fill="#3A4259"/>
        <path d="M85.9338 3.61914H76.8881L68.7471 18.0953L76.8881 33.4763H85.9338L77.7927 18.0953L85.9338 3.61914Z" fill="#3A4259"/>
        <path d="M106.739 3.61914H87.7427V9.95247H103.12L105.834 13.1191L103.12 16.2858H87.7427V33.4763H95.8838V23.5239H99.502L106.739 33.4763H114.88V31.6668L107.643 22.1668L112.166 16.2858V9.04771L106.739 3.61914Z" fill="#3A4259"/>
        <path d="M160.108 3.61914H141.112V9.95247H156.489L159.203 13.1191L156.489 16.2858H141.112V33.4763H149.253V23.5239H152.871H160.108L165.535 16.2858V9.04771L160.108 3.61914Z" fill="#3A4259"/>
        <path d="M115.784 33.4763V3.61914H139.303V9.95247H124.83V15.381H133.875V20.8096H124.83V26.2382H139.303V33.4763H115.784Z" fill="#3A4259"/>
        <path d="M176.39 3.61914H168.249V33.4763H176.39V3.61914Z" fill="#3A4259"/>
        <path d="M205.336 3.61914H179.104V9.95247H194.481L179.104 28.0477V33.4763H206.24V27.143H189.958L205.336 8.14295V3.61914Z" fill="#3A4259"/>
        <path fill-rule="evenodd" clip-rule="evenodd" d="M210.264 4.57153H208.955V3.57153H212.573V4.57153H211.264V8.14296H210.264V4.57153Z" fill="#3A4259"/>
        <path fill-rule="evenodd" clip-rule="evenodd" d="M217.06 3.61914H218V8.14295H217.095V5.96816L216.226 8.14295H215.251L214.382 5.96816V8.14295H213.477V3.61914H214.417L215.738 6.92488L217.06 3.61914Z" fill="#3A4259"/>
    </g>
    <defs>
        <clipPath id="clip0_3201_5878">
            <rect width="218" height="38" fill="white"/>
        </clipPath>
    </defs>
</svg>
