<svg id="phone" viewBox="0 0 21 21" xmlns="http://www.w3.org/2000/svg">
	<path d="M17.1281 17.9375C15.4286 17.9375 13.736 17.5591 12.0505 16.8024C10.3651 16.0458 8.82408 14.9692 7.42744 13.5726C6.03648 12.1759 4.96125 10.6343 4.20175 8.94775C3.44225 7.26119 3.0625 5.56923 3.0625 3.87187V3.0625H7.58559L8.36128 7.04703L5.93491 9.40297C6.29497 10.0334 6.68026 10.6192 7.09078 11.1604C7.50145 11.7017 7.93559 12.1968 8.39322 12.6455C8.83859 13.1021 9.33392 13.5334 9.87919 13.9394C10.4243 14.3456 11.0306 14.7359 11.6981 15.1106L14.1094 12.6573L17.9375 13.4363V17.9375H17.1281Z"/>
</svg>