<svg id="pin" viewBox="0 0 21 21" xmlns="http://www.w3.org/2000/svg">
	<path d="M10.5015 10.3821C10.9369 10.3821 11.309 10.2271 11.618 9.91703C11.9272 9.60699 12.0818 9.23431 12.0818 8.799C12.0818 8.36369 11.9268 7.99145 11.6167 7.68228C11.3067 7.37326 10.9339 7.21875 10.4985 7.21875C10.0632 7.21875 9.691 7.37377 9.38198 7.68381C9.07281 7.99385 8.91823 8.3666 8.91823 8.80206C8.91823 9.23737 9.07325 9.60954 9.38329 9.91856C9.69333 10.2276 10.0661 10.3821 10.5015 10.3821ZM10.5 18.8208C8.29792 16.9127 6.64665 15.137 5.5462 13.4936C4.44574 11.8501 3.89551 10.3412 3.89551 8.967C3.89551 6.94779 4.54862 5.31307 5.85485 4.06284C7.16123 2.81261 8.70961 2.1875 10.5 2.1875C12.2904 2.1875 13.8388 2.81261 15.1452 4.06284C16.4514 5.31307 17.1045 6.94779 17.1045 8.967C17.1045 10.3412 16.5543 11.8501 15.4538 13.4936C14.3534 15.137 12.7021 16.9127 10.5 18.8208Z"/>
</svg>