<svg id="soc-mailru" viewBox="0 0 22 14" xmlns="http://www.w3.org/2000/svg">
	<path d="M6.72558 3.94991C7.89083 3.94991 8.83544 3.06591 8.83544 1.97544C8.83544 0.884976 7.89083 0.000976562 6.72558 0.000976562C5.56034 0.000976562 4.61572 0.884976 4.61572 1.97544C4.61572 3.06591 5.56034 3.94991 6.72558 3.94991Z"/>
	<path d="M15.2939 3.94991C16.4592 3.94991 17.4038 3.06591 17.4038 1.97544C17.4038 0.884976 16.4592 0.000976562 15.2939 0.000976562C14.1287 0.000976562 13.1841 0.884976 13.1841 1.97544C13.1841 3.06591 14.1287 3.94991 15.2939 3.94991Z"/>
	<path d="M21.8513 11.6067L19.2957 7.50947C18.9787 7.0089 18.2952 6.83277 17.7504 7.1294C17.2155 7.42604 17.0273 8.06565 17.3443 8.56622L17.7207 9.15949C15.8486 10.7539 13.4614 11.6253 10.8959 11.6253C8.40961 11.6253 6.07192 10.791 4.2196 9.28L4.66535 8.55695C4.98232 8.05638 4.79412 7.4075 4.25922 7.12013C3.72433 6.8235 3.03095 6.99963 2.71397 7.5002L0.158366 11.5974C-0.158608 12.098 0.0295951 12.7469 0.564489 13.0343C0.742787 13.127 0.940896 13.1733 1.1291 13.1733C1.51541 13.1733 1.89182 12.9879 2.09983 12.6542L2.91208 11.3564C5.17052 13.0713 7.95395 13.9983 10.8959 13.9983C13.8675 13.9983 16.75 13.0065 19.0183 11.2452L19.9098 12.6635C20.1178 12.9972 20.4943 13.1826 20.8806 13.1826C21.0688 13.1826 21.2669 13.1362 21.4452 13.0435C21.9801 12.7469 22.1584 12.1073 21.8513 11.6067Z"/>
</svg>