<svg id="soc-ok" viewBox="0 0 18 18" xmlns="http://www.w3.org/2000/svg">
	<path d="M3.54073 9.66057C3.08098 10.5643 3.60298 10.9963 4.79398 11.7343C5.80648 12.3598 7.20523 12.5886 8.10373 12.6801C7.73548 13.0341 9.42298 11.4111 4.56298 16.0858C3.53248 17.0736 5.19148 18.6583 6.22123 17.6916L9.00898 15.0028C10.0762 16.0296 11.0992 17.0136 11.7967 17.6953C12.8272 18.6658 14.4855 17.0946 13.4662 16.0896C13.3897 16.0168 9.68848 12.4663 9.91423 12.6838C10.824 12.5923 12.2017 12.3501 13.2022 11.7381L13.2015 11.7373C14.3925 10.9956 14.9145 10.5643 14.4615 9.66057C14.1877 9.14757 13.4497 8.71857 12.4672 9.46032C12.4672 9.46032 11.1405 10.4766 9.00073 10.4766C6.86023 10.4766 5.53423 9.46032 5.53423 9.46032C4.55248 8.71482 3.81148 9.14757 3.54073 9.66057Z"/>
	<path d="M8.99901 9.1065C11.6075 9.1065 13.7375 7.068 13.7375 4.5585C13.7375 2.0385 11.6075 0 8.99901 0C6.38977 0 4.25977 2.0385 4.25977 4.5585C4.25977 7.068 6.38977 9.1065 8.99901 9.1065ZM8.99901 2.30925C10.2808 2.30925 11.3263 3.315 11.3263 4.5585C11.3263 5.7915 10.2808 6.79725 8.99901 6.79725C7.71727 6.79725 6.67177 5.7915 6.67177 4.5585C6.67102 3.31425 7.71652 2.30925 8.99901 2.30925Z"/>
</svg>